<?xml version="1.0" standalone="no"?>
<!DOCTYPE svg PUBLIC "-//W3C//DTD SVG 20010904//EN"
 "http://www.w3.org/TR/2001/REC-SVG-20010904/DTD/svg10.dtd">
<svg version="1.0" xmlns="http://www.w3.org/2000/svg"
 width="589.000000pt" height="151.000000pt" viewBox="0 0 589.000000 151.000000"
 preserveAspectRatio="xMidYMid meet">

<g transform="translate(0.000000,151.000000) scale(0.100000,-0.100000)"
fill="rgba(255,255,255,1)" stroke="none">
<path d="M392 1208 c-22 -22 -12 -58 65 -226 l78 -167 5 -233 c5 -217 6 -235
24 -248 16 -11 62 -14 212 -14 174 0 194 2 215 19 24 19 24 22 30 263 l5 243
67 165 c37 91 67 175 67 188 0 20 -5 22 -49 22 -27 0 -53 -6 -59 -12 -5 -7
-34 -82 -63 -166 l-52 -154 -54 148 c-29 82 -61 156 -70 166 -14 16 -36 18
-213 18 -139 0 -199 -3 -208 -12z"/>
<path d="M1375 980 c-33 -5 -81 -16 -108 -25 -48 -16 -117 -53 -117 -62 0 -3
9 -18 21 -34 17 -24 24 -27 40 -18 37 19 72 7 91 -31 45 -90 -1 -280 -105
-434 -15 -21 -24 -42 -21 -47 3 -5 145 -9 315 -9 l310 0 -3 48 -3 47 -147 -3
c-82 -2 -148 -1 -148 1 0 3 21 19 48 35 63 42 145 127 174 182 18 36 23 61 23
126 0 72 -3 85 -28 121 -35 51 -105 89 -187 102 -71 12 -69 12 -155 1z"/>
<path d="M3303 979 c-130 -17 -238 -90 -285 -194 -32 -71 -32 -218 -1 -288 43
-93 99 -142 203 -177 77 -26 213 -30 303 -10 72 17 181 70 184 90 2 8 -5 26
-15 39 -18 22 -20 23 -50 7 -79 -41 -145 -1 -167 101 l-6 32 138 3 138 3 3 63
c5 114 -35 207 -116 269 -72 54 -202 79 -329 62z m292 -159 c29 -11 49 -51 59
-117 l6 -43 -95 0 -95 0 0 28 c0 48 20 101 47 122 29 23 41 24 78 10z"/>
<path d="M5207 980 c-89 -11 -169 -50 -198 -96 -16 -26 -29 -83 -49 -220 -32
-211 -40 -228 -116 -240 -48 -7 -48 -7 -58 -46 -6 -24 -3 -27 42 -42 86 -27
166 -39 267 -39 109 1 173 17 236 59 61 42 75 80 98 272 12 96 26 182 31 193
14 25 42 39 79 39 18 0 31 5 31 13 0 6 3 21 6 33 5 17 -1 24 -33 36 -84 34
-230 50 -336 38z"/>
<path d="M2725 964 c-22 -8 -44 -15 -50 -14 -5 2 -96 4 -202 7 -183 4 -193 3
-213 -17 -19 -19 -20 -31 -20 -300 0 -267 1 -281 20 -300 19 -19 33 -20 209
-20 171 0 191 2 212 19 24 19 24 21 29 276 5 246 6 258 25 265 35 13 62 -5 68
-47 4 -21 7 -145 7 -276 l0 -238 48 3 47 3 3 258 c1 150 -2 274 -8 296 -21 78
-98 115 -175 85z"/>
<path d="M3797 953 c-4 -3 -7 -15 -7 -26 0 -32 219 -573 239 -591 13 -12 38
-16 94 -16 92 0 87 -5 157 169 25 61 47 111 50 111 3 0 25 -54 49 -119 60
-165 56 -161 149 -161 87 0 93 3 114 45 31 61 238 566 238 580 0 19 -112 22
-128 3 -5 -7 -29 -73 -53 -146 l-44 -133 -41 124 c-62 186 -37 167 -228 167
-136 0 -165 -3 -170 -15 -3 -8 9 -51 25 -96 29 -75 30 -83 19 -125 -7 -24 -16
-44 -20 -44 -4 0 -29 57 -55 128 -26 70 -52 133 -58 140 -7 9 -53 12 -167 12
-86 0 -160 -3 -163 -7z"/>
</g>
</svg>
